<?xml version="1.0" encoding="UTF-8"?>
<svg version="1.1" xmlns="http://www.w3.org/2000/svg" width="1959" height="2353">
<path d="M0 0 C2.875 -0.125 2.875 -0.125 6 0 C8.70499582 2.70499582 8.31420846 4.22062394 8.43896484 8.01123047 C8.48613647 9.28669235 8.53330811 10.56215424 8.58190918 11.87626648 C8.61332253 12.9091256 8.61332253 12.9091256 8.64537048 13.96285057 C8.71194721 16.15036372 8.78987209 18.33721696 8.87072754 20.52424622 C8.98590634 23.66580135 9.09645634 26.80746937 9.20355225 29.9493103 C9.4880724 38.22138597 9.81841273 46.49167037 10.15625 54.76171875 C10.19000607 55.58989168 10.22376213 56.41806461 10.25854111 57.27133369 C14.5643478 161.86403645 31.56866628 266.27842686 191.41699219 733.24414062 C193.10461945 736.18213207 194.74805338 739.14165844 196.3828125 742.109375 C203.84859137 755.65670975 211.71205389 768.87096713 220.03076172 781.91162109 C222.10282579 785.16126286 224.16304809 788.41823292 226.22265625 791.67578125 C227.62694286 793.88844068 229.03187382 796.10069131 230.4375 798.3125 C231.0754248 799.31990234 231.71334961 800.32730469 232.37060547 801.36523438 C236.10917573 807.21690956 240.02595525 812.88400345 244.14477539 818.47436523 C245.74190463 820.64863843 247.30454649 822.83927305 248.84375 825.0546875 C256.88858158 836.63343989 265.37879643 847.845692 274 859 C274.53044922 859.68787598 275.06089844 860.37575195 275.60742188 861.08447266 C281.35432992 868.52378025 287.28121763 875.7777133 293.390625 882.921875 C295.77472092 885.71666189 298.07805515 888.57051045 300.375 891.4375 C304.99875258 897.12571361 309.98448242 902.44138972 315 907.78125 C317.26928063 910.20144338 319.47234368 912.66226854 321.625 915.1875 C325.23870464 919.38551012 329.19627446 923.22695035 333.15625 927.09375 C335.33446961 929.26309938 337.34454368 931.53613637 339.34375 933.87109375 C342.97449528 938.06308019 346.91533206 941.81822106 351 945.5625 C355.58475638 949.79154252 360.09411168 954.06325698 364.48583984 958.49291992 C366.19957216 960.19863898 367.97330756 961.80566649 369.8125 963.375 C372.85583088 965.99694661 375.84352274 968.66909667 378.8125 971.375 C384.06137226 976.10615345 389.50562076 980.55876785 395 985 C396.23120087 986.01082767 397.46162618 987.02260049 398.69140625 988.03515625 C469.77897079 1046.43637887 552.03443121 1089.25546717 802 1146 C803.16515137 1146.0920874 804.33030273 1146.1841748 805.53076172 1146.27905273 C812.43483587 1146.78417274 819.31468809 1147.09797568 826.234375 1147.24609375 C827.40435783 1147.27120781 827.40435783 1147.27120781 828.59797668 1147.29682922 C831.80416901 1147.36292543 835.01032714 1147.42571384 838.21679688 1147.47680664 C840.59791316 1147.51634984 842.97853232 1147.56780191 845.359375 1147.62109375 C846.08429138 1147.6295079 846.80920776 1147.63792206 847.55609131 1147.64659119 C851.23412654 1147.73766304 852.85810362 1147.90540241 856 1150 C856.40843923 1152.71203652 856.13336867 1155.2437142 856 1158 C852.3594331 1159.66101347 849.53513627 1160.24698713 845.54345703 1160.23950195 C844.46697906 1160.24346985 843.3905011 1160.24743774 842.28140259 1160.25152588 C841.11861786 1160.24715515 839.95583313 1160.24278442 838.7578125 1160.23828125 C836.24153015 1160.24938424 833.72525369 1160.26189217 831.20898438 1160.27563477 C829.88987061 1160.28055939 828.57075684 1160.28548401 827.21166992 1160.29055786 C802.68753867 1160.40365976 778.66292727 1161.44678986 754.44683838 1165.58276367 C751.84782688 1166.02594865 749.24706122 1166.4577124 746.64599609 1166.88867188 C676.16941346 1178.65068152 607.40560375 1198.7550915 543 1230 C542.07154266 1230.44859375 542.07154266 1230.44859375 541.12432861 1230.90625 C523.55982119 1239.39553354 506.3852225 1248.29236201 489.67724609 1258.39013672 C487.11643296 1259.92998733 484.54070661 1261.44030761 481.95703125 1262.94140625 C443.12339209 1285.62842702 406.70485486 1313.50157767 373.4765625 1343.76953125 C371.40298184 1345.6370621 369.30917028 1347.47413488 367.203125 1349.3046875 C356.54507197 1358.61652545 346.39697698 1368.51236624 336.375 1378.5 C335.64168457 1379.22872314 334.90836914 1379.95744629 334.15283203 1380.70825195 C330.17163737 1384.70085797 326.37372884 1388.79162931 322.69287109 1393.06201172 C319.92613026 1396.22935938 317.01767464 1399.26063282 314.125 1402.3125 C309.20506227 1407.5394866 304.54625318 1412.85862862 300.06640625 1418.46875 C297.99887218 1421.00138153 295.83886659 1423.4073116 293.625 1425.8125 C288.56605493 1431.37206984 283.98998797 1437.26626511 279.39404297 1443.20751953 C278.0563979 1444.92748277 276.70541078 1446.63572841 275.34765625 1448.33984375 C233.85607105 1500.47774906 199.10335271 1557.83783496 168.94140625 1617.1529541 C168.01024988 1618.97988967 167.07432636 1620.80429765 166.13671875 1622.62792969 C155.63022768 1643.07553779 146.09136606 1663.88723111 137 1685 C136.68117859 1685.73947876 136.36235718 1686.47895752 136.03387451 1687.24084473 C125.57357915 1711.53714575 116.04919762 1736.14612086 107 1761 C106.71747375 1761.7736792 106.43494751 1762.5473584 106.14385986 1763.34448242 C71.6547891 1857.84870281 48.22504559 1956.33868556 27 2089 C26.8700061 2089.8921521 26.74001221 2090.7843042 26.6060791 2091.70349121 C18.21684868 2149.53066379 12.93363317 2207.78828518 9.75 2266.125 C9.70870972 2266.86407593 9.66741943 2267.60315186 9.62487793 2268.36462402 C9.50924517 2270.47459303 9.40041624 2272.58471685 9.296875 2274.6953125 C9.26422546 2275.3608313 9.23157593 2276.0263501 9.19793701 2276.71203613 C9.03510829 2280.52330675 8.99908257 2284.3134125 9.06054688 2288.12792969 C9.07241028 2288.99006073 9.08427368 2289.85219177 9.09649658 2290.740448 C9.12524993 2292.41126397 9.16751065 2294.08191916 9.22528076 2295.75198364 C9.28535074 2299.08746434 9.24336527 2301.5323587 7.68652344 2304.52392578 C6 2306 6 2306 2.875 2306.3125 C0 2306 0 2306 -1 2305 C-1.15511447 2303.65749249 -1.24575298 2302.30745073 -1.30957031 2300.95751953 C-1.3536351 2300.08454727 -1.39769989 2299.21157501 -1.44309998 2298.31214905 C-1.48765823 2297.34546799 -1.53221649 2296.37878693 -1.578125 2295.3828125 C-1.68478671 2293.27804996 -1.79199169 2291.1733149 -1.8996582 2289.06860352 C-1.95610504 2287.9409256 -2.01255188 2286.81324768 -2.07070923 2285.65139771 C-7.4638029 2179.5768184 -21.15968801 2073.62023317 -83 1820 C-83.27908203 1819.11054687 -83.55816406 1818.22109375 -83.84570312 1817.3046875 C-104.7141035 1750.90959296 -130.45937244 1686.54201144 -161 1624 C-161.43502838 1623.10837158 -161.43502838 1623.10837158 -161.87884521 1622.19873047 C-169.95125373 1605.66689135 -178.353515 1589.43666119 -187.56689453 1573.50341797 C-189.28427628 1570.50341244 -190.94065217 1567.47319843 -192.59155273 1564.4362793 C-209.52856058 1533.38569315 -229.19072937 1503.58183351 -250 1475 C-250.55059082 1474.24122559 -251.10118164 1473.48245117 -251.66845703 1472.70068359 C-261.35220343 1459.37919825 -271.34663626 1446.35848589 -281.8203125 1433.6484375 C-283.30230937 1431.84773163 -284.77598794 1430.04015429 -286.2421875 1428.2265625 C-290.64547284 1422.78721002 -295.17207557 1417.50732182 -299.8828125 1412.33203125 C-301.78051169 1410.24176111 -303.64733415 1408.13013885 -305.5 1406 C-309.61464325 1401.28549987 -313.78535908 1396.62536305 -318 1392 C-318.70842041 1391.22172852 -318.70842041 1391.22172852 -319.43115234 1390.42773438 C-327.04800956 1382.08814545 -334.90028288 1373.99774526 -342.875 1366 C-343.75446289 1365.11594482 -344.63392578 1364.23188965 -345.54003906 1363.32104492 C-349.96164836 1358.90990742 -354.44336917 1354.64244114 -359.18164062 1350.57324219 C-361.96334497 1348.16651517 -364.63009024 1345.64105548 -367.3125 1343.125 C-372.10995628 1338.66173293 -377.03162373 1334.43025571 -382.14453125 1330.328125 C-384.77176248 1328.18608696 -387.33352497 1325.98918188 -389.88793945 1323.76196289 C-398.29778113 1316.44191377 -407.06028118 1309.65810121 -416 1303 C-416.65291016 1302.51015625 -417.30582031 1302.0203125 -417.97851562 1301.515625 C-486.50472977 1250.27592317 -563.98275495 1212.13928275 -836.50390625 1161.12695312 C-838.05658203 1161.14338867 -838.05658203 1161.14338867 -839.640625 1161.16015625 C-840.55360352 1161.17699463 -841.46658203 1161.19383301 -842.40722656 1161.21118164 C-845.54747776 1160.95540788 -848.70158022 1160.29841978 -851 1158 C-851.25 1154.5625 -851.25 1154.5625 -851 1151 C-845.13164757 1147.08776505 -838.4589688 1147.92855631 -831.6640625 1148.078125 C-829.56643497 1148.10986844 -827.46877574 1148.13956708 -825.37109375 1148.16748047 C-823.72149658 1148.18944489 -823.72149658 1148.18944489 -822.03857422 1148.21185303 C-798.73074672 1148.47231992 -776.28592215 1147.07509326 -753.2880249 1143.36712646 C-751.02352641 1143.00377494 -748.75752296 1142.65189953 -746.49072266 1142.30322266 C-668.04895029 1130.16961699 -592.4754821 1106.20360503 -495.41894531 1056.39892578 C-493.22835481 1055.13206228 -491.02448945 1053.89833356 -488.8046875 1052.68359375 C-453.74760202 1033.49877634 -420.23714726 1009.54223798 -389.94140625 983.5078125 C-387.1654606 981.14106999 -384.34436807 978.84617969 -381.5 976.5625 C-376.12065325 972.18834505 -371.06358317 967.51145346 -366 962.78125 C-363.64983283 960.58932351 -361.25562396 958.46347694 -358.8125 956.375 C-354.89625472 952.99466197 -351.29509163 949.33009411 -347.6875 945.625 C-345.5703378 943.55707413 -343.43299026 941.63551639 -341.1875 939.71484375 C-336.82275386 935.9304942 -332.9119537 931.80681696 -329 927.5625 C-324.35791201 922.5532156 -319.6732859 917.61783587 -314.80444336 912.82739258 C-312.36489738 910.35682003 -310.10239597 907.75304225 -307.83984375 905.12109375 C-305.80491181 902.77508942 -303.71709033 900.4826355 -301.625 898.1875 C-297.72636603 893.86739209 -294.02496142 889.41928619 -290.3671875 884.89453125 C-288.31640969 882.386897 -286.22646202 879.91978895 -284.11401367 877.46411133 C-277.70166965 869.99356412 -271.73033565 862.22539274 -265.79931641 854.37011719 C-263.90444526 851.87413224 -261.99130804 849.39301688 -260.07421875 846.9140625 C-251.92611011 836.35518951 -244.11733534 825.64865886 -236.70996094 814.55761719 C-234.87017214 811.8058143 -233.01742299 809.06299082 -231.1640625 806.3203125 C-180.82743376 731.60015483 -140.41090248 650.49553665 -108 564 C-107.59518402 562.91706665 -107.59518402 562.91706665 -107.18218994 561.81225586 C-86.07575464 505.21917659 -68.61329158 447.59627801 -54 389 C-53.76968079 388.07765564 -53.53936157 387.15531128 -53.30206299 386.20501709 C-32.67285203 303.41460591 -18.82132913 219.2128039 -9.38861084 134.44818115 C-9.00895931 131.07949682 -8.61542635 127.71273581 -8.21728516 124.34619141 C-4.7021835 94.45128159 -3.50582259 65.00169786 -3.92016602 34.93896484 C-3.93638823 33.60490525 -3.95252359 32.2708446 -3.96856689 30.93678284 C-4.00144377 28.47025894 -4.04420775 26.00383752 -4.09906006 23.53770447 C-4.21790846 15.30782529 -3.98103609 7.37791509 0 0 Z " fill="#FEFEFE" transform="translate(965,0)"/>
<path d="M0 0 C3.29714793 0.32971479 4.6226839 0.6226839 7 3 C7.28249865 5.89983824 7.4451068 8.71778002 7.52734375 11.625 C7.59604939 13.44710515 7.6648184 15.26920792 7.73364258 17.09130859 C7.76648346 18.05413757 7.79932434 19.01696655 7.8331604 20.00897217 C10.68030465 101.62599712 24.89420909 182.8250672 69 297 C69.4419873 297.98178223 69.88397461 298.96356445 70.33935547 299.97509766 C84.61891989 331.52841865 103.10494732 361.17700099 125 388 C125.44214844 388.5465625 125.88429688 389.093125 126.33984375 389.65625 C138.34494237 404.41034221 151.83803086 418.47874686 167 430 C167.95132812 430.76828125 168.90265625 431.5365625 169.8828125 432.328125 C188.42065275 447.1026443 209.39735854 458.98550751 231.375 467.8125 C232.19774414 468.14918701 233.02048828 468.48587402 233.86816406 468.83276367 C255.30162005 477.09332256 278.63112474 481.04344554 300.98046875 486.19726562 C303.65668712 486.81470229 306.3318235 487.43648051 309.00588989 488.06317139 C311.49605771 488.6465491 313.98778263 489.22332845 316.48117065 489.79278564 C317.58808258 490.05355896 318.69499451 490.31433228 319.83544922 490.58300781 C320.81198456 490.80917786 321.7885199 491.0353479 322.79464722 491.26837158 C323.88629684 491.63052765 323.88629684 491.63052765 325 492 C325.33 492.66 325.66 493.32 326 494 C325.36835937 494.03963867 324.73671875 494.07927734 324.0859375 494.12011719 C262.80260101 498.11589669 205.43618722 517.95316784 159 559 C158.19949219 559.68964844 157.39898437 560.37929687 156.57421875 561.08984375 C144.4329689 571.72108942 132.85571624 583.20971657 123 596 C122.16117967 597.03964102 121.31989867 598.07730002 120.4765625 599.11328125 C85.65368816 642.15207875 62.38922124 692.81473909 45 745 C44.59297852 746.21445801 44.18595703 747.42891602 43.76660156 748.68017578 C21.27902262 816.45393109 6.04250573 893.5276891 8.21484375 965.21484375 C8.35274338 974.40397365 8.35274338 974.40397365 5 978 C1.3125 978.3125 1.3125 978.3125 -2 978 C-4.47546624 972.36760113 -4.85405091 966.89036783 -5.4375 960.8125 C-5.62699219 958.89993408 -5.62699219 958.89993408 -5.8203125 956.94873047 C-7.26477965 941.78956238 -8.04254484 926.57576736 -8.82202148 911.37036133 C-9.91233971 890.86083851 -12.43444525 870.63728348 -16.125 850.4375 C-16.34659286 849.21616364 -16.34659286 849.21616364 -16.57266235 847.97015381 C-33.13490469 757.21625966 -63.25508763 659.13866435 -130.73828125 583.4453125 C-132.6904888 581.3346356 -134.57306278 579.18772443 -136.4375 577 C-144.21211322 568.09652022 -152.72448424 560.30648104 -162 553 C-163.07008157 552.12891838 -164.13905116 551.25646935 -165.20703125 550.3828125 C-174.03768068 543.21854051 -183.30140827 536.92966238 -193 531 C-193.65194336 530.60039063 -194.30388672 530.20078125 -194.97558594 529.7890625 C-202.7845495 525.06164525 -210.81985292 521.02119362 -219.1875 517.375 C-220.3326709 516.87105713 -220.3326709 516.87105713 -221.50097656 516.35693359 C-224.31136148 515.16975887 -227.14456402 514.074831 -230 513 C-230.635961 512.75913666 -231.271922 512.51827332 -231.92715454 512.27011108 C-249.43933744 505.75436721 -267.64847696 501.8272689 -285.81842041 497.63879395 C-290.02453543 496.66690891 -294.22795275 495.68349154 -298.43164062 494.70117188 C-306.61856166 492.78977203 -314.8082825 490.89073761 -323 489 C-322.67 488.34 -322.34 487.68 -322 487 C-319.77294922 486.65283203 -319.77294922 486.65283203 -316.8046875 486.5078125 C-315.15932007 486.41342896 -315.15932007 486.41342896 -313.48071289 486.31713867 C-311.69588501 486.22203003 -311.69588501 486.22203003 -309.875 486.125 C-237.98218624 481.51082047 -175.01237916 447.37584515 -127.41015625 394.1015625 C-125.2138835 391.44313179 -123.10404035 388.73200437 -121 386 C-119.96152982 384.71071142 -118.92099185 383.42308687 -117.87890625 382.13671875 C-103.31845269 364.00795196 -91.17592809 344.35716012 -80 324 C-79.57412598 323.23333008 -79.14825195 322.46666016 -78.70947266 321.67675781 C-39.18712534 250.27459116 -19.65149848 167.36990376 -5.0546875 38.3515625 C-5.05960205 37.57679565 -5.0645166 36.80202881 -5.06958008 36.00378418 C-5.09487061 32.10362315 -5.13632806 28.20518592 -5.21191406 24.30566406 C-5.31814225 16.59902159 -5.37474381 9.1287816 -2 2 C-1.34 1.34 -0.68 0.68 0 0 Z " fill="#FDFDFD" transform="translate(323,1375)"/>
<path d="M0 0 C2.625 0.25 2.625 0.25 4.26367188 1.41137695 C6.15768434 3.96944867 6.00940989 5.74991221 6.03125 8.91796875 C6.0509082 10.0999585 6.07056641 11.28194824 6.09082031 12.49975586 C6.10773926 14.44893921 6.10773926 14.44893921 6.125 16.4375 C6.17969782 19.27640984 6.25175594 22.1147221 6.328125 24.953125 C6.34792419 25.70238754 6.36772339 26.45165009 6.38812256 27.22361755 C8.64549927 105.22195055 23.91085004 183.9662397 112.625 374.25 C113.48458246 375.40739803 114.34396968 376.56494111 115.203125 377.72265625 C129.66581351 397.04098613 146.37553603 415.62274774 165.625 430.25 C166.57632812 431.01828125 167.52765625 431.7865625 168.5078125 432.578125 C186.47655631 446.89907872 206.66809585 458.50232133 228 467 C228.84723633 467.3405542 229.69447266 467.6811084 230.56738281 468.03198242 C250.2936284 475.60512639 271.1954228 479.870229 291.73492432 484.61541748 C295.45765209 485.47669867 299.17894991 486.34411537 302.90039062 487.2109375 C310.14058115 488.89645825 317.38226432 490.57544547 324.625 492.25 C321.5023768 494.3317488 320.51886411 494.5367499 316.92578125 494.7421875 C315.97654785 494.80494873 315.02731445 494.86770996 314.04931641 494.93237305 C313.02241699 494.99593994 311.99551758 495.05950684 310.9375 495.125 C252.69740133 499.45904497 196.77527671 521.99082333 153.9375 562.0859375 C151.83492875 564.05354641 149.68778915 565.94091475 147.5 567.8125 C82.0685502 624.81413112 46.72040839 717.51968194 7.14916992 934.65649414 C6.75973591 940.65872317 6.54092043 946.6559759 6.39453125 952.66796875 C6.3668718 953.74090935 6.3668718 953.74090935 6.33865356 954.83552551 C6.25022912 958.33750522 6.17914461 961.83816001 6.14160156 965.34106445 C6.11678711 966.58976318 6.09197266 967.83846191 6.06640625 969.125 C6.05295166 970.23617187 6.03949707 971.34734375 6.02563477 972.4921875 C5.625 975.25 5.625 975.25 4.32788086 977.15234375 C1.46984122 978.99460127 -1.19866017 977.90924034 -4.375 977.25 C-6.75627951 969.4009757 -7.1943992 961.38426193 -7.8125 953.25 C-7.94201349 951.62888322 -8.07182303 950.00779007 -8.2019043 948.38671875 C-8.93425996 939.07603594 -9.5319996 929.7639266 -10.0234375 920.4375 C-11.34445893 895.6768484 -13.59093173 871.58975765 -18.375 847.25 C-18.52880127 846.46280579 -18.68260254 845.67561157 -18.84106445 844.86456299 C-35.48021037 759.99853549 -62.25989596 670.65727414 -116.98535156 601.99365234 C-118.21703257 600.44820861 -119.43385762 598.89095079 -120.6484375 597.33203125 C-124.64256966 592.24069678 -128.86094244 587.40033914 -133.22265625 582.62109375 C-135.14355377 580.50496889 -137.01489432 578.35690731 -138.875 576.1875 C-145.1633878 568.98417356 -152.02960983 562.36518662 -159.375 556.25 C-159.89304199 555.81816406 -160.41108398 555.38632812 -160.94482422 554.94140625 C-179.53789855 539.5281079 -199.86464254 526.62295552 -222 516.875 C-222.8559375 516.49472656 -223.711875 516.11445312 -224.59375 515.72265625 C-246.14615254 506.5452979 -269.30363305 502.13128948 -292.03735352 496.91815186 C-296.98095073 495.78400877 -301.92293419 494.64329282 -306.86285019 493.49321747 C-309.16425776 492.96031587 -311.46777415 492.43731954 -313.77151489 491.91461182 C-315.16566464 491.59103895 -316.55970393 491.26698969 -317.95361328 490.94238281 C-319.17315704 490.66291809 -320.39270081 490.38345337 -321.64920044 490.09552002 C-322.99847122 489.67698761 -322.99847122 489.67698761 -324.375 489.25 C-324.705 488.59 -325.035 487.93 -325.375 487.25 C-324.7444873 487.21559814 -324.11397461 487.18119629 -323.46435547 487.14575195 C-259.67924873 483.45594085 -202.16943564 462.62119451 -154.71875 419.375 C-152.56807289 417.42505276 -150.38675029 415.51973871 -148.1875 413.625 C-141.70719292 407.9644908 -135.96234007 401.78137002 -130.375 395.25 C-129.18970703 393.89841797 -129.18970703 393.89841797 -127.98046875 392.51953125 C-110.2246673 372.11946077 -95.33086873 349.37681273 -82.60351562 325.546875 C-81.31564688 323.13903136 -80.00923941 320.74173847 -78.703125 318.34375 C-44.40574281 254.77375286 -25.57117826 182.60515901 -14 111.6875 C-13.83651062 110.68730835 -13.67302124 109.6871167 -13.50457764 108.65661621 C-12.40298855 101.86261911 -11.37261717 95.05996166 -10.375 88.25 C-10.15777283 86.8129924 -10.15777283 86.8129924 -9.93615723 85.34695435 C-7.31134683 67.76459014 -6.91868454 50.43495107 -6.86376953 32.68188477 C-6.84805341 29.15361521 -6.81511521 25.62579083 -6.78125 22.09765625 C-6.78427124 21.03821304 -6.78729248 19.97876984 -6.79040527 18.88722229 C-6.60701281 0.69547503 -6.60701281 0.69547503 0 0 Z " fill="#FDFDFD" transform="translate(1634.375,33.75)"/>
<path d="M0 0 C3.96 0 7.92 0 12 0 C8 3 8 3 4.3125 2.8125 C3.219375 2.544375 2.12625 2.27625 1 2 C0.67 1.34 0.34 0.68 0 0 Z " fill="#BABABA" transform="translate(1309,521)"/>
<path d="M0 0 C2.31 0.33 4.62 0.66 7 1 C3.47320901 3.35119399 1.97120515 3.21443452 -2.1875 3.125 C-3.27417969 3.10695313 -4.36085938 3.08890625 -5.48046875 3.0703125 C-6.72763672 3.03550781 -6.72763672 3.03550781 -8 3 C-8 2.67 -8 2.34 -8 2 C-5.36 2 -2.72 2 0 2 C0 1.34 0 0.68 0 0 Z " fill="#B5B5B5" transform="translate(1952,525)"/>
</svg>
