<?xml version="1.0" encoding="UTF-8"?>
<svg version="1.1" xmlns="http://www.w3.org/2000/svg" width="4280" height="1439">
<path d="M0 0 C1.98 0.495 1.98 0.495 4 1 C4.03963867 2.093125 4.07927734 3.18625 4.12011719 4.3125 C6.23592755 61.11762063 13.38415622 116.54714751 26 172 C26.16844421 172.74060669 26.33688843 173.48121338 26.51043701 174.2442627 C37.77171689 223.47489194 54.27440049 271.41260186 76 317 C76.45955078 317.96969727 76.91910156 318.93939453 77.39257812 319.93847656 C96.12287709 359.20958323 120.46643375 395.36771296 149.75 427.52734375 C151.34481809 429.27998238 152.9269187 431.04423185 154.5 432.81640625 C158.71451256 437.53845919 162.92313271 442.01434536 167.7734375 446.08203125 C170.02495763 448.02149859 172.1740301 450.05119227 174.32592773 452.09985352 C182.3940646 459.73531042 191.06029707 466.4218418 200 473 C201.02867187 473.76594482 201.02867187 473.76594482 202.078125 474.54736328 C212.77304502 482.48436142 223.94124508 489.26740957 235.60791016 495.68066406 C237.69075881 496.82944077 239.75938482 497.99899051 241.82421875 499.1796875 C290.0236053 526.05907664 345.54575684 535.61055284 400 538 C400.33 539.65 400.66 541.3 401 543 C398.26065295 544.36967353 396.03826633 544.14503002 392.97265625 544.17578125 C312.35273279 545.51806462 233.59448986 576.4123479 174.140625 631.04296875 C172.21228157 632.80592506 170.2437201 634.49953949 168.25 636.1875 C159.2038171 644.07297104 150.70470318 652.80629801 143 662 C141.84564453 663.32064453 141.84564453 663.32064453 140.66796875 664.66796875 C118.8862606 689.70671656 101.06595651 717.73132649 85.20556641 746.79736328 C84.08856994 748.8381778 82.95748945 750.87054017 81.82421875 752.90234375 C56.01402391 799.74985827 39.63971101 852.26212719 27 904 C26.83497986 904.6712793 26.66995972 905.34255859 26.49993896 906.03417969 C12.6058243 962.72259248 5.91855332 1021.71567327 4 1080 C2.35 1080 0.7 1080 -1 1080 C-1.03900925 1079.44180573 -1.07801849 1078.88361145 -1.11820984 1078.3085022 C-7.47016163 987.86132539 -20.90189073 898.80493692 -62 792 C-62.28103577 791.34980896 -62.56207153 790.69961792 -62.85162354 790.02972412 C-82.03912651 745.70006752 -105.85721842 704.08484553 -137 667 C-137.80824219 666.00613281 -138.61648438 665.01226563 -139.44921875 663.98828125 C-145.90335781 656.15035207 -152.90541518 648.88114759 -160.0625 641.6875 C-160.97217529 640.76864014 -161.88185059 639.84978027 -162.8190918 638.90307617 C-168.90705127 632.84247831 -175.29156145 627.35792841 -182 622 C-183.03925394 621.12486213 -184.07437201 620.24473516 -185.1015625 619.35546875 C-244.1039192 568.66458954 -321.50913572 546.7624347 -398 544 C-398.33 542.35 -398.66 540.7 -399 539 C-396.26065295 537.63032647 -394.03826633 537.85496998 -390.97265625 537.82421875 C-310.00335555 536.47611841 -230.84999207 505.32968015 -171.375 450.19140625 C-169.28689961 448.26472151 -167.16138127 446.40577475 -165 444.5625 C-157.05999289 437.6496396 -149.81403508 430.01241344 -143 422 C-142.15308594 421.04222656 -141.30617188 420.08445312 -140.43359375 419.09765625 C-79.66682684 350.07797236 -44.9068295 261.29317594 -2.3269043 14.43457031 C-2.31746292 13.68651123 -2.30802155 12.93845215 -2.29829407 12.16772461 C-2.2750044 10.15128816 -2.26471867 8.13471334 -2.25537109 6.11816406 C-2 3 -2 3 0 0 Z " fill="#FDFDFD" transform="translate(452,118)"/>
<path d="M0 0 C3.59270253 0.01269404 7.18541022 0.01369229 10.77813172 0.01605082 C17.54906366 0.02221171 24.31992927 0.03854767 31.09083229 0.05874979 C40.26323953 0.08551001 49.43566553 0.09612511 58.60810208 0.10775423 C73.01302857 0.12643367 87.41781526 0.1663146 101.82273316 0.20278788 C101.82273316 22.64278788 101.82273316 45.08278788 101.82273316 68.20278788 C93.64620973 68.25177225 85.46968629 68.30075663 77.04538941 68.35122538 C71.17282258 68.39116251 65.3002734 68.43228916 59.42772794 68.47511911 C51.84042601 68.53029839 44.25313891 68.58276757 36.66575074 68.62466288 C30.00667372 68.66144237 23.3477328 68.70822281 16.68875909 68.76085138 C14.16015167 68.77924992 11.63151836 68.79441024 9.10287118 68.80613184 C-27.36825464 68.58879197 -27.36825464 68.58879197 -58.92726684 85.26528788 C-87.88639904 116.77339015 -77.74547822 179.38685294 -78.17726684 212.20278788 C-1.94726684 212.20278788 74.28273316 212.20278788 152.82273316 212.20278788 C152.82273316 154.78278788 152.82273316 97.36278788 152.82273316 38.20278788 C179.22273316 38.20278788 205.62273316 38.20278788 232.82273316 38.20278788 C232.82273316 95.62278788 232.82273316 153.04278788 232.82273316 212.20278788 C278.36273316 212.20278788 323.90273316 212.20278788 370.82273316 212.20278788 C370.82273316 234.64278788 370.82273316 257.08278788 370.82273316 280.20278788 C325.28273316 280.20278788 279.74273316 280.20278788 232.82273316 280.20278788 C232.97157578 332.77702094 232.97157578 332.77702094 233.12937379 385.35122538 C233.15133775 392.44855588 233.17324234 399.54588657 233.19504762 406.64321756 C233.1977828 407.53268021 233.20051799 408.42214285 233.20333606 409.33855891 C233.247334 423.67448388 233.28798428 438.01041647 233.32738578 452.34635472 C233.36793544 467.07276519 233.41211114 481.79916161 233.45961171 496.52555132 C233.48877905 505.60321697 233.51516074 514.68088175 233.53791214 523.75856578 C233.55381214 529.99417713 233.57325291 536.22977137 233.59540158 542.46536362 C233.60805366 546.05611718 233.61921809 549.64685797 233.62615228 553.23762751 C233.16532398 578.54275959 233.16532398 578.54275959 236.57273316 603.51528788 C236.74828736 604.26818094 236.92384156 605.02107401 237.10471559 605.79678202 C238.62427222 611.98872593 240.7105833 617.6199898 243.82273316 623.20278788 C244.3370691 624.13606913 244.85140504 625.06935038 245.38132691 626.03091288 C253.57762822 639.88701577 266.59485478 647.7957114 281.88523316 652.14028788 C288.19244765 653.68386873 294.46634474 654.32481591 300.95139527 654.40811014 C301.96242311 654.42295954 301.96242311 654.42295954 302.99387574 654.43810892 C305.1959085 654.46940228 307.39796275 654.49435236 309.60007691 654.51919413 C311.13707463 654.53979153 312.67406704 654.56078869 314.21105409 654.58216715 C318.23704665 654.63710029 322.26308788 654.68663516 326.28916383 654.73501444 C331.13015216 654.79432211 335.97105245 654.86039029 340.81196809 654.92531443 C348.14883556 655.02296158 355.48576209 655.112065 362.82273316 655.20278788 C362.82273316 677.64278788 362.82273316 700.08278788 362.82273316 723.20278788 C343.69083111 723.36322311 343.69083111 723.36322311 335.34812379 723.39810038 C329.72076739 723.42174 324.09367825 723.44926774 318.46653199 723.50454569 C270.22289688 723.96558778 223.59090453 718.57216896 187.57273316 683.26528788 C182.65253916 678.3007678 178.47815252 673.18362276 174.82273316 667.20278788 C174.47645875 666.64671854 174.13018434 666.0906492 173.77341676 665.51772928 C158.85485155 641.3259857 152.44466619 613.56473052 152.58222413 585.28849649 C152.57966086 583.31529213 152.57966086 583.31529213 152.5770458 581.30222505 C152.57262826 577.69896762 152.58049756 574.0958318 152.59060192 570.49258983 C152.59931606 566.5889319 152.59631068 562.68527971 152.59479737 558.78161478 C152.59375351 552.03417281 152.59997763 545.28676981 152.61127305 538.53933764 C152.62759319 528.78393577 152.63274269 519.02855256 152.63524903 509.27313852 C152.63961596 493.44197908 152.65289775 477.61084037 152.67185426 461.77969217 C152.69023908 446.40990154 152.70435986 431.04011658 152.71286988 415.67031717 C152.71340588 414.71175367 152.71394187 413.75319017 152.71449411 412.76557928 C152.71865346 405.26792123 152.72256713 397.77026305 152.72640324 390.27260482 C152.7452381 353.58264682 152.78548238 316.89274074 152.82273316 280.20278788 C76.59273316 280.20278788 0.36273316 280.20278788 -78.17726684 280.20278788 C-78.17726684 426.39278788 -78.17726684 572.58278788 -78.17726684 723.20278788 C-104.90726684 723.20278788 -131.63726684 723.20278788 -159.17726684 723.20278788 C-159.17726684 577.01278788 -159.17726684 430.82278788 -159.17726684 280.20278788 C-190.19726684 280.20278788 -221.21726684 280.20278788 -253.17726684 280.20278788 C-253.17726684 257.76278788 -253.17726684 235.32278788 -253.17726684 212.20278788 C-222.15726684 212.20278788 -191.13726684 212.20278788 -159.17726684 212.20278788 C-159.2559162 187.98801938 -159.2559162 187.98801938 -159.35744262 163.77334452 C-159.49060378 116.94530528 -156.20464709 71.54940621 -122.12648559 36.10903788 C-104.69363467 18.61271084 -81.08057199 8.91991419 -57.23976684 3.95278788 C-56.51458861 3.8014036 -55.78941039 3.65001932 -55.04225707 3.49404764 C-36.79261405 0.01783159 -18.50669788 -0.07668427 0 0 Z " fill="#F7F7F7" transform="translate(2810.1772668361664,351.79721212387085)"/>
<path d="M0 0 C1.1255983 -0.00705963 2.25119659 -0.01411926 3.41090393 -0.02139282 C50.86427469 -0.25143659 50.86427469 -0.25143659 71.81640625 3.203125 C73.06631348 3.40711914 74.3162207 3.61111328 75.60400391 3.82128906 C136.73007311 14.01502345 194.92523337 40.76368757 232.00390625 92.140625 C258.08534676 129.27116826 274.81640625 176.5641208 274.81640625 222.203125 C246.76640625 222.203125 218.71640625 222.203125 189.81640625 222.203125 C187.83640625 208.838125 187.83640625 208.838125 185.81640625 195.203125 C178.989779 167.57909844 168.10074615 144.17229187 148.81640625 123.203125 C148.2028125 122.51863281 147.58921875 121.83414063 146.95703125 121.12890625 C122.04154853 94.67162386 84.54891163 82.90450964 49.81640625 77.203125 C49.01187012 77.07035156 48.20733398 76.93757813 47.37841797 76.80078125 C0.8783362 69.6267708 -54.7847572 75.09573081 -94.28125 102.33984375 C-96.66696069 104.21670116 -98.93060986 106.17004562 -101.18359375 108.203125 C-101.93511719 108.81414062 -102.68664063 109.42515625 -103.4609375 110.0546875 C-119.15128661 123.08974676 -129.22140016 143.16078826 -132.18359375 163.203125 C-133.70705267 188.21306713 -130.90462117 209.63423403 -114.18359375 229.203125 C-113.03890625 230.7190625 -113.03890625 230.7190625 -111.87109375 232.265625 C-89.57109434 256.64004296 -54.06864119 266.22167178 -23.68359375 275.7734375 C-22.4571411 276.15989 -22.4571411 276.15989 -21.20591164 276.55414963 C-4.2414476 281.89917073 12.75783861 287.1289765 29.7645874 292.33755493 C206.89300811 346.59769496 206.89300811 346.59769496 245.81640625 381.203125 C246.78449219 382.03972656 247.75257813 382.87632812 248.75 383.73828125 C278.89591787 410.18401294 295.36459735 447.44758768 298.63549805 487.15820312 C298.99760166 493.25288102 299.06025163 499.34910337 299.06640625 505.453125 C299.06741333 506.15188751 299.06842041 506.85065002 299.06945801 507.57058716 C299.05715028 520.28935298 298.123592 532.68266442 295.81640625 545.203125 C295.6771875 545.96044922 295.53796875 546.71777344 295.39453125 547.49804688 C286.76704688 592.27309309 260.19273449 629.61577366 222.87890625 655.140625 C185.03544547 680.20245314 140.49449091 690.99041163 95.81640625 695.203125 C94.29998535 695.34669434 94.29998535 695.34669434 92.75292969 695.49316406 C81.7032451 696.41095567 70.64810846 696.44658516 59.56640625 696.453125 C58.01688766 696.45413712 58.01688766 696.45413712 56.43606567 696.45516968 C18.87570363 696.41645773 -17.82296638 691.89718444 -54.18359375 682.203125 C-55.47668457 681.861604 -55.47668457 681.861604 -56.79589844 681.51318359 C-76.38725661 676.24681265 -95.47742564 668.68651587 -113.38476562 659.15332031 C-115.19724403 658.19591451 -117.02365483 657.27135453 -118.85546875 656.3515625 C-139.79748184 645.70500245 -158.28020285 631.40740163 -175.18359375 615.203125 C-176.13105469 614.30851563 -177.07851562 613.41390625 -178.0546875 612.4921875 C-205.9446462 585.51211397 -224.50899341 549.2518802 -232.99609375 511.640625 C-233.19106445 510.79274414 -233.38603516 509.94486328 -233.58691406 509.07128906 C-235.6185658 499.45050438 -236.18939548 490.14510767 -237.18359375 480.203125 C-208.80359375 480.203125 -180.42359375 480.203125 -151.18359375 480.203125 C-149.20359375 488.783125 -147.22359375 497.363125 -145.18359375 506.203125 C-132.14535786 545.04042341 -106.12197641 574.0644845 -70.18359375 593.203125 C-69.11431641 593.77474365 -69.11431641 593.77474365 -68.0234375 594.35791016 C-9.723772 624.95480527 71.03704726 631.07394494 133.66748047 611.62158203 C151.82003551 605.72391647 168.51897019 598.13188162 182.81640625 585.203125 C183.74324219 584.37039063 184.67007812 583.53765625 185.625 582.6796875 C202.4789305 566.73741205 212.85040673 543.8041561 213.94067383 520.55297852 C214.66670795 493.16373467 210.34310748 469.0898998 191.05078125 448.53515625 C190.3134375 447.76558594 189.57609375 446.99601562 188.81640625 446.203125 C188.2028125 445.52636719 187.58921875 444.84960938 186.95703125 444.15234375 C150.72774553 405.52325492 85.41965764 394.3109151 36.79330444 379.23301697 C26.53277038 376.05082791 16.27820605 372.84992274 6.02734375 369.63671875 C5.29603556 369.40750669 4.56472736 369.17829464 3.81125832 368.94213676 C-3.43998042 366.66914479 -10.69051034 364.39389935 -17.9404211 362.11667538 C-21.38987578 361.03321822 -24.83945023 359.95014277 -28.2890625 358.8671875 C-29.27961104 358.55615176 -29.27961104 358.55615176 -30.29017067 358.23883247 C-38.28441842 355.72925902 -46.28468798 353.24081085 -54.296875 350.7890625 C-102.7468271 335.9356223 -154.77335196 315.16771363 -186.18359375 273.203125 C-186.77269531 272.4296875 -187.36179687 271.65625 -187.96875 270.859375 C-200.76175401 253.37463148 -209.38201166 233.53119874 -213.18359375 212.203125 C-213.36092041 211.20941895 -213.53824707 210.21571289 -213.72094727 209.19189453 C-215.26448313 199.61743842 -215.54353193 190.24752374 -215.49609375 180.578125 C-215.4939386 179.78598602 -215.49178345 178.99384705 -215.48956299 178.17770386 C-215.43638388 165.9792467 -214.99574009 154.12418012 -212.18359375 142.203125 C-211.99023438 141.37425781 -211.796875 140.54539062 -211.59765625 139.69140625 C-206.77449428 119.77353366 -198.99965024 100.9884245 -187.18359375 84.203125 C-186.77979492 83.62578613 -186.37599609 83.04844727 -185.95996094 82.45361328 C-169.58998615 59.46891247 -147.87364132 42.39077788 -123.18359375 29.203125 C-122.45398437 28.8102832 -121.724375 28.41744141 -120.97265625 28.01269531 C-84.61529603 8.76757639 -40.85112052 0.17136902 0 0 Z " fill="#FCFCFC" transform="translate(1682.18359375,389.796875)"/>
<path d="M0 0 C1.01578125 0.04640625 2.0315625 0.0928125 3.078125 0.140625 C28.35323763 1.39866228 52.71803982 4.77064843 77 12 C77.82741699 12.24556641 78.65483398 12.49113281 79.50732422 12.74414062 C100.02851762 19.00498369 120.58303722 28.40685289 138 41 C138.639375 41.45729492 139.27875 41.91458984 139.9375 42.38574219 C147.90015019 48.10512681 155.46572067 54.0556915 162.6171875 60.76953125 C164.73601127 62.75288924 166.90477551 64.6323994 169.125 66.5 C216.99676987 108.35138502 238.58116445 178.71406143 242.78833008 239.97558594 C243.22833716 247.60111537 243.2437924 255.23892579 243.25 262.875 C243.25100708 263.74350586 243.25201416 264.61201172 243.25305176 265.50683594 C243.1947814 340.55905102 222.02459652 411.71392266 170 467 C169.38382813 467.65871094 168.76765625 468.31742188 168.1328125 468.99609375 C163.1623852 474.14488567 157.61025666 478.57163741 152 483 C151.09507812 483.721875 150.19015625 484.44375 149.2578125 485.1875 C140.62940433 491.87989415 131.42048644 497.501555 122 503 C121.05882324 503.55518311 121.05882324 503.55518311 120.09863281 504.12158203 C93.62420713 519.58317001 63.06205924 527.38972222 33 532 C32.14535156 532.13277344 31.29070313 532.26554687 30.41015625 532.40234375 C4.91695613 536.12795099 -23.54237884 535.80442826 -49 532 C-49.89283691 531.87109375 -50.78567383 531.7421875 -51.70556641 531.609375 C-112.10241024 522.65401666 -167.79570686 494.44331366 -205.125 445.25 C-211.3420167 436.8599269 -216.80603183 428.05173679 -222 419 C-222.41991211 418.27538574 -222.83982422 417.55077148 -223.27246094 416.80419922 C-249.72670696 370.63833896 -259.27013232 316.23954372 -259.1875 263.5625 C-259.18656342 262.78042175 -259.18562683 261.99834351 -259.18466187 261.19256592 C-259.01551437 195.50167862 -241.77519984 127.27325366 -195.99609375 78.1484375 C-194.17614754 76.18959128 -192.46282627 74.17704125 -190.75 72.125 C-149.99121388 25.67677234 -86.01687937 4.56337697 -26.06201172 0.56665039 C-17.35232961 0.03409519 -8.72493843 -0.40048898 0 0 Z M-129.75 122.9375 C-135.13407208 128.86151924 -139.71672359 135.24799218 -144 142 C-144.40605469 142.63534668 -144.81210938 143.27069336 -145.23046875 143.92529297 C-152.09838883 154.78981423 -157.45439262 165.9860724 -162 178 C-162.27827637 178.73299316 -162.55655273 179.46598633 -162.84326172 180.22119141 C-177.00737393 218.26854413 -179.74350217 261.92978953 -174 302 C-173.87641113 302.88945313 -173.75282227 303.77890625 -173.62548828 304.6953125 C-167.62195703 346.494444 -152.24338562 385.13198184 -123 416 C-122.10796875 416.95648437 -121.2159375 417.91296875 -120.296875 418.8984375 C-92.30685097 448.32031014 -52.20352516 462.79199562 -12.13671875 464.12890625 C4.89459063 464.45476808 21.54862593 462.40155968 38 458 C38.71446289 457.80986328 39.42892578 457.61972656 40.16503906 457.42382812 C58.4471698 452.37076979 76.58774668 443.39226821 91 431 C91.82886719 430.29617188 92.65773438 429.59234375 93.51171875 428.8671875 C96.06369668 426.63170291 98.53794609 424.33405722 101 422 C101.94617187 421.11828125 102.89234375 420.2365625 103.8671875 419.328125 C122.81153562 401.31983596 135.89348885 378.33609669 145 354 C145.27537598 353.26749023 145.55075195 352.53498047 145.83447266 351.78027344 C152.83256433 332.82341752 156.6951213 313.03609521 159 293 C159.09571289 292.1948999 159.19142578 291.3897998 159.29003906 290.56030273 C160.20912054 281.87102976 160.24346858 273.16546423 160.25 264.4375 C160.25067474 263.62319519 160.25134949 262.80889038 160.25204468 261.96990967 C160.18935794 214.05732119 148.68545402 162.65440201 116 126 C115.236875 125.12859375 114.47375 124.2571875 113.6875 123.359375 C86.98714756 93.23127461 49.49962591 73.7600313 9 71 C-44.73708594 68.65236499 -92.43141336 83.04137302 -129.75 122.9375 Z " fill="#F9F9F9" transform="translate(2290,552)"/>
<path d="M0 0 C0.60360352 0.50208984 1.20720703 1.00417969 1.82910156 1.52148438 C12.66928385 10.56347839 22.2207641 19.89813762 31 31 C31.80566406 32.0003125 32.61132812 33.000625 33.44140625 34.03125 C73.74164116 84.62040102 88.46105875 151.37753265 87 215 C86.98743164 215.75635742 86.97486328 216.51271484 86.96191406 217.29199219 C85.53637874 292.14714286 61.70584587 363.11927911 7.80859375 416.34375 C-27.18811955 449.44217148 -73.63636386 468.1265433 -121 474 C-121.76779785 474.09571289 -122.5355957 474.19142578 -123.32666016 474.29003906 C-183.5173498 480.76515085 -248.24293085 467.04515677 -296.34448242 429.14233398 C-299.62011837 426.49291677 -302.82525752 423.76920349 -306 421 C-306.86963379 420.24203125 -306.86963379 420.24203125 -307.75683594 419.46875 C-351.74131283 380.75232793 -376.13931985 326.72266996 -385.8125 269.625 C-386.10483521 267.90023437 -386.10483521 267.90023437 -386.40307617 266.140625 C-389.43652143 247.10304879 -390.37788098 228.19837989 -390.3125 208.9375 C-390.31067719 207.81892609 -390.30885437 206.70035217 -390.30697632 205.54788208 C-390.26036625 188.53004631 -389.77131945 171.826251 -387 155 C-386.82307617 153.9059082 -386.64615234 152.81181641 -386.46386719 151.68457031 C-378.31646392 102.7579362 -359.39391184 55.58806584 -324.50585938 19.55712891 C-323.44358117 18.45868364 -322.38821763 17.35353079 -321.33789062 16.24365234 C-306.98441593 1.09763007 -291.05253466 -10.61297832 -273 -21 C-272.3797998 -21.36432129 -271.75959961 -21.72864258 -271.12060547 -22.10400391 C-194.51125211 -66.86806533 -81.56121535 -61.09310683 0 0 Z M-277.76953125 33.921875 C-279.81782622 35.83026891 -281.92035597 37.63624726 -284.0625 39.4375 C-324.88438938 75.27911888 -340.99252653 134.34596805 -344.80151367 186.43530273 C-345.18077468 193.24660645 -345.24379417 200.05497142 -345.25 206.875 C-345.25100708 207.65224426 -345.25201416 208.42948853 -345.25305176 209.23028564 C-345.19669069 274.33560915 -327.66500266 338.70360458 -281.3125 386.0625 C-252.78528878 414.41402702 -214.49526542 429.4682004 -175 434 C-173.30037109 434.19722656 -173.30037109 434.19722656 -171.56640625 434.3984375 C-122.20782469 439.05134837 -71.75986584 426.56706841 -32.9375 395.25 C-31.2828337 393.84366034 -29.63642718 392.42752159 -28 391 C-27.20207031 390.32324219 -26.40414062 389.64648438 -25.58203125 388.94921875 C-20.58013342 384.63434876 -16.19343879 380.09613599 -12 375 C-11.36022217 374.24468994 -11.36022217 374.24468994 -10.70751953 373.47412109 C20.45019388 336.6474794 34.82786283 290.31431707 40 243 C40.14356934 241.73845093 40.14356934 241.73845093 40.29003906 240.45141602 C41.31351091 230.14241326 41.24372183 219.78690585 41.25 209.4375 C41.25067474 208.43722778 41.25134949 207.43695557 41.25204468 206.40637207 C41.2349505 190.4196382 40.64079809 174.80137114 38 159 C37.82307617 157.93990723 37.64615234 156.87981445 37.46386719 155.78759766 C28.10636084 101.70315035 3.24583946 53.29980701 -42 21 C-73.91575589 -1.16051883 -112.62100655 -10.49858989 -151.0625 -10.3125 C-151.86948334 -10.31034485 -152.67646667 -10.3081897 -153.50790405 -10.30596924 C-198.48407241 -10.114107 -244.26631481 2.65949359 -277.76953125 33.921875 Z " fill="#DBDBDB" transform="translate(4056,607)"/>
<path d="M0 0 C1.9753158 1.87939487 3.92604858 3.78049158 5.875 5.6875 C6.53628906 6.29851563 7.19757812 6.90953125 7.87890625 7.5390625 C34.45466736 32.57330614 50.37371028 74.21541475 54.875 109.6875 C54.875 111.9975 54.875 114.3075 54.875 116.6875 C40.685 116.6875 26.495 116.6875 11.875 116.6875 C7.875 101.6875 7.875 101.6875 6.671875 97.13671875 C1.02435009 76.84356023 -8.1374769 56.60715177 -22.125 40.6875 C-22.78757812 39.88183594 -23.45015625 39.07617188 -24.1328125 38.24609375 C-46.58590203 11.77464687 -81.63031 -0.26491551 -115.125 -4.3125 C-115.84397461 -4.4067627 -116.56294922 -4.50102539 -117.30371094 -4.59814453 C-125.50935953 -5.56463369 -133.74915436 -5.55605462 -142 -5.5625 C-142.77745575 -5.56317474 -143.5549115 -5.56384949 -144.35592651 -5.56454468 C-156.50340616 -5.54782445 -168.23784227 -5.02164138 -180.125 -2.3125 C-181.25663574 -2.06306641 -181.25663574 -2.06306641 -182.41113281 -1.80859375 C-206.25266884 3.62136384 -229.1393606 15.59702378 -242.875 36.4375 C-254.89774312 55.55794532 -257.68060034 77.5972175 -253.16015625 99.5078125 C-248.35161906 120.26044667 -233.68492393 136.43836364 -215.97509766 147.55175781 C-192.8274473 161.76169044 -167.47133965 171.01708991 -142.12740326 180.4712944 C-138.29818598 181.90139312 -134.47180126 183.33903466 -130.64501953 184.77563477 C-115.54718041 190.44008532 -100.43408931 196.06281735 -85.31079102 201.65893555 C2.8263217 234.27871747 2.8263217 234.27871747 32.875 262.6875 C33.70902344 263.45707031 34.54304688 264.22664063 35.40234375 265.01953125 C57.26427339 285.87089404 66.52256583 314.54703196 67.22851562 344.16918945 C67.48968659 379.34120232 57.70503017 411.98993486 32.875 437.6875 C29.36324959 440.91652474 25.69026351 443.82741691 21.875 446.6875 C20.60076172 447.70070313 20.60076172 447.70070313 19.30078125 448.734375 C0.20137788 463.46575338 -24.48278369 471.48593474 -47.9375 475.875 C-48.7529126 476.02984863 -49.5683252 476.18469727 -50.40844727 476.34423828 C-67.21993725 479.30424581 -84.08779647 480.06637895 -101.125 480 C-102.10334808 479.99817719 -103.08169617 479.99635437 -104.08969116 479.99447632 C-161.62500252 479.81484852 -221.82262836 466.03253367 -264.125 424.6875 C-265.04667969 423.82769531 -265.96835938 422.96789063 -266.91796875 422.08203125 C-294.5203855 395.72542174 -308.2664151 358.19042724 -311.125 320.6875 C-311.125 319.0375 -311.125 317.3875 -311.125 315.6875 C-296.605 315.6875 -282.085 315.6875 -267.125 315.6875 C-265.64 325.5875 -265.64 325.5875 -264.125 335.6875 C-263.31464287 339.2157806 -262.52471568 342.51906862 -261.4375 345.9375 C-261.18476318 346.753396 -260.93202637 347.56929199 -260.67163086 348.40991211 C-255.19326136 365.32583933 -245.75834858 380.33224784 -234.125 393.6875 C-233.33222656 394.60789062 -233.33222656 394.60789062 -232.5234375 395.546875 C-203.25115174 427.07087505 -154.43963517 437.921934 -113.27929688 439.61279297 C-75.48637219 440.9233817 -30.312057 437.86165651 -1.125 410.6875 C14.05804343 396.1158543 22.50079639 376.02109715 23.2109375 355.05078125 C23.51209248 331.63310163 20.49930346 311.45729434 3.875 293.6875 C-29.34970946 259.67172603 -84.25168742 246.86397117 -127.59975815 230.80555725 C-133.52433691 228.61059403 -139.44745289 226.41170779 -145.36987686 224.2109375 C-149.00170917 222.86173855 -152.63438793 221.51492787 -156.26928711 220.17401123 C-265.62577313 179.82646983 -265.62577313 179.82646983 -289.37109375 128.8359375 C-300.581299 103.28371006 -301.74463286 72.35913442 -294.125 45.6875 C-293.91601074 44.95144531 -293.70702148 44.21539063 -293.49169922 43.45703125 C-288.512349 26.59810765 -280.05262141 12.51034173 -268.125 -0.3125 C-267.32320312 -1.19550781 -266.52140625 -2.07851563 -265.6953125 -2.98828125 C-207.20629428 -64.64145947 -83.83633138 -58.80283084 0 0 Z " fill="#E8E8E8" transform="translate(3543.125,602.3125)"/>
<path d="M0 0 C2.125 0.375 2.125 0.375 4 1 C4.05945801 2.31713989 4.05945801 2.31713989 4.12011719 3.66088867 C7.39713139 73.31554559 22.12515068 148.70729522 75.17822266 198.36474609 C93.13014605 214.47865428 114.90681908 221.5422354 138.00244141 226.65087891 C140.28708457 227.1588399 142.56932673 227.67666134 144.8515625 228.1953125 C145.55560211 228.34743195 146.25964172 228.49955139 146.98501587 228.65628052 C148.67233329 229.04102966 150.33939208 229.51270816 152 230 C152.33 230.66 152.66 231.32 153 232 C151.89785156 232.09796875 150.79570312 232.1959375 149.66015625 232.296875 C117.63651466 235.35861283 91.66842461 246.69945281 68 269 C67.39800781 269.54914063 66.79601562 270.09828125 66.17578125 270.6640625 C18.14244902 316.12218111 6.40171713 395.61855763 4 458 C2.33388095 458.042721 0.66617115 458.04063832 -1 458 C-3.17215015 455.82784985 -2.6687213 451.07945934 -2.9375 448.0625 C-3.02612305 447.12519043 -3.11474609 446.18788086 -3.20605469 445.22216797 C-3.67640309 440.12114745 -4.07236146 435.02460815 -4.36328125 429.91015625 C-6.79211137 388.98950917 -17.18686196 346.05971897 -37 310 C-37.71522517 308.65775526 -38.43005797 307.31530137 -39.14453125 305.97265625 C-46.78356631 291.81524758 -55.85780688 279.57675603 -67 268 C-67.85271484 267.05253906 -67.85271484 267.05253906 -68.72265625 266.0859375 C-90.10891976 243.00408789 -121.31614421 235.76270801 -151 230 C-151 229.34 -151 228.68 -151 228 C-150.04299194 227.90295776 -150.04299194 227.90295776 -149.06665039 227.80395508 C-111.79390659 223.90499247 -81.20782255 210.28908329 -56.95019531 181.04516602 C-24.30539861 140.47693268 -11.35620446 88.47426977 -4 38 C-3.8872876 37.28392578 -3.7745752 36.56785156 -3.65844727 35.83007812 C-2.49707529 27.87727384 -2.64765761 19.75825963 -2.48242188 11.73828125 C-2.44826172 10.51753906 -2.41410156 9.29679688 -2.37890625 8.0390625 C-2.34132202 6.37157959 -2.34132202 6.37157959 -2.30297852 4.67041016 C-2 2 -2 2 0 0 Z " fill="#FCFCFC" transform="translate(151,762)"/>
<path d="M0 0 C1.95703125 0.6003418 1.95703125 0.6003418 4 2 C4.57421875 4.79614258 4.57421875 4.79614258 4.6875 8.39453125 C4.71511414 9.0451503 4.74272827 9.69576935 4.7711792 10.36610413 C4.83059001 11.77540641 4.8820936 13.18505912 4.92663574 14.59490967 C5.05141398 18.36659654 5.25160928 22.13408963 5.453125 25.90234375 C5.49358948 26.66992004 5.53405396 27.43749634 5.57574463 28.22833252 C8.83548417 86.45598775 28.16521441 153.13735138 71 195 C92.72523851 214.27657457 117.13345926 222.48774241 145.00390625 228.30102539 C145.90109375 228.4943042 146.79828125 228.68758301 147.72265625 228.88671875 C148.92547241 229.13748169 148.92547241 229.13748169 150.15258789 229.39331055 C150.76223389 229.59351807 151.37187988 229.79372559 152 230 C152.33 230.66 152.66 231.32 153 232 C152.41210693 232.06993164 151.82421387 232.13986328 151.21850586 232.21191406 C113.52306958 236.78462228 81.46849663 250.55472225 57.23583984 280.79345703 C49.81056809 290.30742501 43.65234418 300.35152046 38 311 C37.37230713 312.16547363 37.37230713 312.16547363 36.73193359 313.35449219 C13.34223957 357.3961088 5.87768265 408.7849496 4 458 C2.125 458.625 2.125 458.625 0 459 C-2.33359979 456.66640021 -2.30654638 456.0483903 -2.5625 452.87109375 C-2.6356543 452.01459229 -2.70880859 451.15809082 -2.78417969 450.27563477 C-2.89101074 448.87075806 -2.89101074 448.87075806 -3 447.4375 C-3.08411133 446.45515381 -3.16822266 445.47280762 -3.25488281 444.46069336 C-3.68703133 439.33358299 -4.05593737 434.20659095 -4.359375 429.0703125 C-7.84717586 373.27464101 -25.72399719 312.90513493 -64 271 C-64.79792969 270.11957031 -65.59585938 269.23914063 -66.41796875 268.33203125 C-89.40485509 244.14517695 -119.59404792 236.96460381 -151 230 C-151 229.34 -151 228.68 -151 228 C-149.82566406 227.90203125 -148.65132812 227.8040625 -147.44140625 227.703125 C-111.15409226 224.44364893 -81.44475965 210.09070024 -57.47265625 182.04296875 C-46.76771393 168.59837295 -38.167023 153.59167651 -31 138 C-30.67435059 137.29359375 -30.34870117 136.5871875 -30.01318359 135.859375 C-12.60832515 97.57038364 -2.70636944 53.67694055 -2.27587891 11.54052734 C-2.26347168 10.45723145 -2.25106445 9.37393555 -2.23828125 8.2578125 C-2.23868408 7.3105127 -2.23908691 6.36321289 -2.23950195 5.38720703 C-2 3 -2 3 0 0 Z " fill="#FCFCFC" transform="translate(764,134)"/>
<path d="M0 0 C14.19 0 28.38 0 43 0 C43 238.59 43 477.18 43 723 C28.81 723 14.62 723 0 723 C0 484.41 0 245.82 0 0 Z " fill="#DEDEDE" transform="translate(4237,352)"/>
<path d="M0 0 C2.97 0 5.94 0 9 0 C9 474.87 9 949.74 9 1439 C6.03 1439 3.06 1439 0 1439 C0 964.13 0 489.26 0 0 Z " fill="#E9E9E9" transform="translate(1151,0)"/>
<path d="M0 0 C2.3431213 0.25561323 4.67843403 0.59270772 7 1 C7.33 1.66 7.66 2.32 8 3 C5.03 3 2.06 3 -1 3 C-0.67 2.01 -0.34 1.02 0 0 Z " fill="#BCBCBC" transform="translate(296,991)"/>
</svg>
